<svg width="800" height="178" viewBox="0 0 800 178" fill="none" xmlns="http://www.w3.org/2000/svg">
<g clip-path="url(#clip0_21_16)">
<g filter="url(#filter0_d_21_16)">
<path d="M405.016 39.8999C416.143 39.8999 425.086 48.8574 425.086 59.812C425.086 70.7668 416.143 79.7241 405.016 79.7241C393.889 79.7241 384.946 70.7667 384.946 59.812C384.946 48.8574 393.889 39.9 405.016 39.8999Z" stroke="#FF1FF0" stroke-width="16" shape-rendering="crispEdges"/>
</g>
<g filter="url(#filter1_f_21_16)">
<path d="M405.016 39.8999C416.143 39.8999 425.086 48.8574 425.086 59.812C425.086 70.7668 416.143 79.7241 405.016 79.7241C393.889 79.7241 384.946 70.7667 384.946 59.812C384.946 48.8574 393.889 39.9 405.016 39.8999Z" stroke="#FF1FF0" stroke-width="16"/>
</g>
<g filter="url(#filter2_f_21_16)">
<path d="M648.859 138.763L666.504 156.787C661.371 163.06 654.634 168.164 646.293 172.099C638.059 176.033 628.969 178 619.024 178C609.721 178 601.273 176.565 593.681 173.694C586.089 170.716 579.512 166.569 573.951 161.253C568.498 155.936 564.274 149.662 561.28 142.432C558.285 135.095 556.788 127.067 556.788 118.347C556.788 109.734 558.339 101.813 561.44 94.582C564.541 87.2451 568.872 80.9183 574.433 75.6016C580.1 70.285 586.73 66.1912 594.322 63.3202C602.022 60.3429 610.47 58.8542 619.666 58.8542C629.611 58.8542 638.594 60.8214 646.614 64.7557C654.741 68.69 661.371 73.794 666.504 80.0676L648.859 98.091C645.544 93.4124 641.32 89.7439 636.188 87.0856C631.162 84.3209 625.654 82.9386 619.666 82.9386C613.25 82.9386 607.475 84.4804 602.343 87.5641C597.317 90.5414 593.36 94.6884 590.473 100.005C587.586 105.322 586.142 111.436 586.142 118.347C586.142 125.259 587.586 131.426 590.473 136.849C593.36 142.166 597.317 146.366 602.343 149.45C607.475 152.427 613.25 153.916 619.666 153.916C625.654 153.916 631.162 152.533 636.188 149.769C641.32 147.004 645.544 143.336 648.859 138.763Z" fill="#FF1FF0"/>
<path d="M713.856 178C704.66 178 696.533 176.192 689.475 172.577C682.524 168.855 677.07 163.751 673.114 157.265C669.264 150.673 667.339 143.176 667.339 134.776C667.339 126.269 669.264 118.773 673.114 112.286C677.07 105.8 682.524 100.749 689.475 97.134C696.533 93.4124 704.66 91.5515 713.856 91.5515C723.052 91.5515 731.126 93.4124 738.077 97.134C745.135 100.749 750.588 105.8 754.438 112.286C758.394 118.773 760.373 126.269 760.373 134.776C760.373 143.176 758.394 150.673 754.438 157.265C750.588 163.751 745.135 168.855 738.077 172.577C731.126 176.192 723.052 178 713.856 178ZM713.856 155.989C717.599 155.989 720.86 155.085 723.641 153.278C726.421 151.47 728.56 148.971 730.057 145.781C731.661 142.591 732.463 138.923 732.463 134.776C732.463 130.629 731.661 126.96 730.057 123.77C728.56 120.58 726.421 118.082 723.641 116.274C720.86 114.466 717.599 113.562 713.856 113.562C710.22 113.562 706.959 114.466 704.072 116.274C701.291 118.082 699.099 120.58 697.495 123.77C695.998 126.96 695.249 130.629 695.249 134.776C695.249 138.923 695.998 142.591 697.495 145.781C699.099 148.971 701.291 151.47 704.072 153.278C706.959 155.085 710.22 155.989 713.856 155.989Z" fill="#FF1FF0"/>
</g>
<rect width="160.402" height="31.8998" rx="12" fill="#FF1FF0"/>
<path d="M72.1807 56.8247C89.3511 56.8247 103.262 70.6641 103.262 87.7241C103.262 104.784 89.3513 118.625 72.1807 118.625C55.0102 118.624 41.1006 104.784 41.1006 87.7241C41.1008 70.6643 55.0104 56.8249 72.1807 56.8247Z" stroke="#FF1FF0" stroke-width="2"/>
<path d="M72.1807 56.8247C89.3511 56.8247 103.262 70.6641 103.262 87.7241C103.262 104.784 89.3513 118.625 72.1807 118.625C55.0102 118.624 41.1006 104.784 41.1006 87.7241C41.1008 70.6643 55.0104 56.8249 72.1807 56.8247Z" stroke="#FF1FF0" stroke-width="2"/>
<rect y="71.7747" width="32.0805" height="31.8998" rx="12" fill="#FF1FF0"/>
<rect x="112.282" y="71.7747" width="48.1207" height="31.8998" rx="12" fill="#FF1FF0"/>
<rect y="143.549" width="160.402" height="31.8998" rx="12" fill="#FF1FF0"/>
<g filter="url(#filter3_f_21_16)">
<rect width="160.402" height="31.8998" rx="12" fill="#FF1FF0"/>
</g>
<g filter="url(#filter4_f_21_16)">
<path d="M72.1807 56.8247C89.3511 56.8247 103.262 70.6641 103.262 87.7241C103.262 104.784 89.3513 118.625 72.1807 118.625C55.0102 118.624 41.1006 104.784 41.1006 87.7241C41.1008 70.6643 55.0104 56.8249 72.1807 56.8247Z" stroke="#FF1FF0" stroke-width="2"/>
</g>
<g filter="url(#filter5_f_21_16)">
<path d="M72.1807 63.8247C85.5225 63.8247 96.2615 74.5673 96.2617 87.7241C96.2617 100.881 85.5226 111.625 72.1807 111.625C58.8389 111.624 48.1006 100.881 48.1006 87.7241C48.1008 74.5675 58.839 63.8249 72.1807 63.8247Z" stroke="#FF1FF0" stroke-width="16"/>
</g>
<g filter="url(#filter6_f_21_16)">
<rect y="71.7747" width="32.0805" height="31.8998" rx="12" fill="#FF1FF0"/>
</g>
<g filter="url(#filter7_f_21_16)">
<rect x="112.282" y="71.7747" width="48.1207" height="31.8998" rx="12" fill="#FF1FF0"/>
</g>
<g filter="url(#filter8_f_21_16)">
<rect y="143.549" width="160.402" height="31.8998" rx="12" fill="#FF1FF0"/>
</g>
<g filter="url(#filter9_d_21_16)">
<path d="M780.051 141C787.842 141 794.101 147.272 794.101 154.938C794.101 162.603 787.842 168.875 780.051 168.875C772.259 168.875 766 162.603 766 154.938C766 147.272 772.259 141 780.051 141Z" stroke="#FF1FF0" stroke-width="12" shape-rendering="crispEdges"/>
</g>
<g filter="url(#filter10_f_21_16)">
<path d="M780.151 141.455C787.943 141.456 794.201 147.727 794.201 155.393C794.201 163.058 787.943 169.33 780.151 169.33C772.36 169.33 766.101 163.058 766.101 155.393C766.101 147.727 772.36 141.455 780.151 141.455Z" stroke="#FF1FF0" stroke-width="12"/>
</g>
<path d="M258.889 172.42H231.781V125.367C231.781 120.37 230.659 116.648 228.413 114.203C226.167 111.757 223.12 110.534 219.27 110.534C216.597 110.534 214.03 111.278 211.571 112.767C209.218 114.149 207.293 116.329 205.796 119.306C204.299 122.284 203.551 126.218 203.551 131.109V172.42H176.443V91.0751H203.39V116.755H200.343C201.091 109.099 202.962 103.25 205.957 99.2096C208.951 95.169 212.426 92.4043 216.383 90.9157C220.446 89.3207 224.296 88.5232 227.932 88.5232C237.449 88.5232 244.988 91.4473 250.549 97.2956C256.109 103.144 258.889 111.597 258.889 122.656V172.42Z" fill="#FF1FF0"/>
<path d="M321.093 172.42H299.92C291.472 172.42 285.216 170.399 281.153 166.359C277.089 162.318 275.058 156.098 275.058 147.697V70.9783H302.166V142.434C302.166 145.517 302.754 147.697 303.93 148.973C305.106 150.143 307.191 150.728 310.186 150.728H321.093V172.42ZM320.291 112.448H262.386V91.0751H320.291V112.448Z" fill="#FF1FF0"/>
<path d="M384.047 89.6397V113.565H378.914C373.781 113.565 369.504 114.415 366.082 116.116C362.767 117.711 360.254 120.263 358.543 123.772C356.832 127.175 355.977 131.694 355.977 137.33V172.42H328.869V91.0751H355.816V117.871H352.769C353.517 110.215 355.389 104.367 358.383 100.326C361.377 96.2855 364.852 93.5208 368.809 92.0321C372.872 90.4372 376.722 89.6397 380.358 89.6397H384.047Z" fill="#FF1FF0"/>
<path d="M416.76 172.42H389.652V91.0751H416.76V172.42Z" fill="#FF1FF0"/>
<path d="M498.162 145.624L511.315 161.733C507.252 165.88 501.851 169.123 495.115 171.463C488.485 173.802 481.32 174.972 473.621 174.972C463.676 174.972 455.014 173.164 447.635 169.549C440.257 165.933 434.482 160.883 430.312 154.396C426.248 147.91 424.217 140.414 424.217 131.907C424.217 123.294 426.195 115.744 430.152 109.258C434.108 102.665 439.455 97.5614 446.192 93.9461C453.036 90.3308 460.628 88.5232 468.969 88.5232C477.203 88.5232 484.528 90.3308 490.944 93.9461C497.36 97.4551 502.386 102.4 506.022 108.78C509.658 115.053 511.476 122.39 511.476 130.79V131.747H485.17V128.876C485.17 124.729 484.528 121.167 483.245 118.19C481.962 115.213 480.09 112.927 477.631 111.332C475.278 109.63 472.337 108.78 468.809 108.78C465.387 108.78 462.339 109.683 459.666 111.491C457.099 113.192 455.067 115.691 453.57 118.987C452.073 122.284 451.325 126.378 451.325 131.269C451.325 136.479 452.341 140.839 454.372 144.348C456.404 147.75 459.238 150.302 462.874 152.004C466.509 153.705 470.68 154.556 475.385 154.556C484.047 154.556 491.639 151.578 498.162 145.624ZM511.476 139.563H440.417V123.932H508.749L511.476 130.95V139.563Z" fill="#FF1FF0"/>
<g filter="url(#filter11_f_21_16)">
<path d="M258.889 172.42H231.781V125.367C231.781 120.37 230.659 116.648 228.413 114.203C226.167 111.757 223.12 110.534 219.27 110.534C216.597 110.534 214.03 111.278 211.571 112.767C209.218 114.149 207.293 116.329 205.796 119.306C204.299 122.284 203.551 126.218 203.551 131.109V172.42H176.443V91.0751H203.39V116.755H200.343C201.091 109.099 202.962 103.25 205.957 99.2096C208.951 95.169 212.426 92.4043 216.383 90.9157C220.446 89.3207 224.296 88.5232 227.932 88.5232C237.449 88.5232 244.988 91.4473 250.549 97.2956C256.109 103.144 258.889 111.597 258.889 122.656V172.42Z" fill="#FF1FF0"/>
<path d="M321.093 172.42H299.92C291.472 172.42 285.216 170.399 281.153 166.359C277.089 162.318 275.058 156.098 275.058 147.697V70.9783H302.166V142.434C302.166 145.517 302.754 147.697 303.93 148.973C305.106 150.143 307.191 150.728 310.186 150.728H321.093V172.42ZM320.291 112.448H262.386V91.0751H320.291V112.448Z" fill="#FF1FF0"/>
<path d="M384.047 89.6397V113.565H378.914C373.781 113.565 369.504 114.415 366.082 116.116C362.767 117.711 360.254 120.263 358.543 123.772C356.832 127.175 355.977 131.694 355.977 137.33V172.42H328.869V91.0751H355.816V117.871H352.769C353.517 110.215 355.389 104.367 358.383 100.326C361.377 96.2855 364.852 93.5208 368.809 92.0321C372.872 90.4372 376.722 89.6397 380.358 89.6397H384.047Z" fill="#FF1FF0"/>
<path d="M416.76 172.42H389.652V91.0751H416.76V172.42Z" fill="#FF1FF0"/>
<path d="M498.162 145.624L511.315 161.733C507.252 165.88 501.851 169.123 495.115 171.463C488.485 173.802 481.32 174.972 473.621 174.972C463.676 174.972 455.014 173.164 447.635 169.549C440.257 165.933 434.482 160.883 430.312 154.396C426.248 147.91 424.217 140.414 424.217 131.907C424.217 123.294 426.195 115.744 430.152 109.258C434.108 102.665 439.455 97.5614 446.192 93.9461C453.036 90.3308 460.628 88.5232 468.969 88.5232C477.203 88.5232 484.528 90.3308 490.944 93.9461C497.36 97.4551 502.386 102.4 506.022 108.78C509.658 115.053 511.476 122.39 511.476 130.79V131.747H485.17V128.876C485.17 124.729 484.528 121.167 483.245 118.19C481.962 115.213 480.09 112.927 477.631 111.332C475.278 109.63 472.337 108.78 468.809 108.78C465.387 108.78 462.339 109.683 459.666 111.491C457.099 113.192 455.067 115.691 453.57 118.987C452.073 122.284 451.325 126.378 451.325 131.269C451.325 136.479 452.341 140.839 454.372 144.348C456.404 147.75 459.238 150.302 462.874 152.004C466.509 153.705 470.68 154.556 475.385 154.556C484.047 154.556 491.639 151.578 498.162 145.624ZM511.476 139.563H440.417V123.932H508.749L511.476 130.95V139.563Z" fill="#FF1FF0"/>
</g>
<path d="M646.847 135.734L664.492 153.757C659.359 160.031 652.622 165.135 644.281 169.069C636.047 173.003 626.957 174.97 617.012 174.97C607.709 174.97 599.261 173.535 591.669 170.664C584.077 167.687 577.5 163.54 571.939 158.223C566.486 152.906 562.262 146.633 559.268 139.402C556.273 132.065 554.776 124.037 554.776 115.318C554.776 106.705 556.327 98.7831 559.428 91.5525C562.529 84.2155 566.86 77.8887 572.421 72.5721C578.088 67.2555 584.718 63.1617 592.311 60.2907C600.01 57.3134 608.458 55.8247 617.654 55.8247C627.599 55.8247 636.582 57.7919 644.602 61.7262C652.729 65.6605 659.359 70.7644 664.492 77.0381L646.847 95.0615C643.532 90.3828 639.308 86.7144 634.176 84.056C629.15 81.2914 623.642 79.9091 617.654 79.9091C611.238 79.9091 605.464 81.4509 600.331 84.5345C595.305 87.5119 591.348 91.6588 588.461 96.9755C585.574 102.292 584.13 108.406 584.13 115.318C584.13 122.229 585.574 128.397 588.461 133.82C591.348 139.136 595.305 143.337 600.331 146.42C605.464 149.397 611.238 150.886 617.654 150.886C623.642 150.886 629.15 149.504 634.176 146.739C639.308 143.975 643.532 140.306 646.847 135.734Z" fill="#FF1FF0"/>
<path d="M711.844 174.97C702.648 174.97 694.521 173.163 687.463 169.548C680.512 165.826 675.059 160.722 671.102 154.236C667.252 147.643 665.327 140.147 665.327 131.746C665.327 123.24 667.252 115.743 671.102 109.257C675.059 102.771 680.512 97.7198 687.463 94.1045C694.521 90.3828 702.648 88.522 711.844 88.522C721.041 88.522 729.114 90.3828 736.065 94.1045C743.123 97.7198 748.576 102.771 752.426 109.257C756.383 115.743 758.361 123.24 758.361 131.746C758.361 140.147 756.383 147.643 752.426 154.236C748.576 160.722 743.123 165.826 736.065 169.548C729.114 173.163 721.041 174.97 711.844 174.97ZM711.844 152.96C715.587 152.96 718.848 152.056 721.629 150.248C724.409 148.44 726.548 145.942 728.045 142.752C729.649 139.562 730.451 135.893 730.451 131.746C730.451 127.599 729.649 123.931 728.045 120.741C726.548 117.551 724.409 115.052 721.629 113.244C718.848 111.437 715.587 110.533 711.844 110.533C708.208 110.533 704.947 111.437 702.06 113.244C699.279 115.052 697.087 117.551 695.483 120.741C693.986 123.931 693.237 127.599 693.237 131.746C693.237 135.893 693.986 139.562 695.483 142.752C697.087 145.942 699.279 148.44 702.06 150.248C704.947 152.056 708.208 152.96 711.844 152.96Z" fill="#FF1FF0"/>
</g>
<defs>
<filter id="filter0_d_21_16" x="372.946" y="31.8999" width="64.1409" height="63.8247" filterUnits="userSpaceOnUse" color-interpolation-filters="sRGB">
<feFlood flood-opacity="0" result="BackgroundImageFix"/>
<feColorMatrix in="SourceAlpha" type="matrix" values="0 0 0 0 0 0 0 0 0 0 0 0 0 0 0 0 0 0 127 0" result="hardAlpha"/>
<feOffset dy="4"/>
<feGaussianBlur stdDeviation="2"/>
<feComposite in2="hardAlpha" operator="out"/>
<feColorMatrix type="matrix" values="0 0 0 0 0 0 0 0 0 0 0 0 0 0 0 0 0 0 0.25 0"/>
<feBlend mode="normal" in2="BackgroundImageFix" result="effect1_dropShadow_21_16"/>
<feBlend mode="normal" in="SourceGraphic" in2="effect1_dropShadow_21_16" result="shape"/>
</filter>
<filter id="filter1_f_21_16" x="374.946" y="29.8999" width="60.1409" height="59.8247" filterUnits="userSpaceOnUse" color-interpolation-filters="sRGB">
<feFlood flood-opacity="0" result="BackgroundImageFix"/>
<feBlend mode="normal" in="SourceGraphic" in2="BackgroundImageFix" result="shape"/>
<feGaussianBlur stdDeviation="1" result="effect1_foregroundBlur_21_16"/>
</filter>
<filter id="filter2_f_21_16" x="554.788" y="56.8542" width="207.584" height="123.146" filterUnits="userSpaceOnUse" color-interpolation-filters="sRGB">
<feFlood flood-opacity="0" result="BackgroundImageFix"/>
<feBlend mode="normal" in="SourceGraphic" in2="BackgroundImageFix" result="shape"/>
<feGaussianBlur stdDeviation="1" result="effect1_foregroundBlur_21_16"/>
</filter>
<filter id="filter3_f_21_16" x="-1" y="-1" width="162.402" height="33.8999" filterUnits="userSpaceOnUse" color-interpolation-filters="sRGB">
<feFlood flood-opacity="0" result="BackgroundImageFix"/>
<feBlend mode="normal" in="SourceGraphic" in2="BackgroundImageFix" result="shape"/>
<feGaussianBlur stdDeviation="0.5" result="effect1_foregroundBlur_21_16"/>
</filter>
<filter id="filter4_f_21_16" x="39.1006" y="54.8247" width="66.1609" height="65.7996" filterUnits="userSpaceOnUse" color-interpolation-filters="sRGB">
<feFlood flood-opacity="0" result="BackgroundImageFix"/>
<feBlend mode="normal" in="SourceGraphic" in2="BackgroundImageFix" result="shape"/>
<feGaussianBlur stdDeviation="0.5" result="effect1_foregroundBlur_21_16"/>
</filter>
<filter id="filter5_f_21_16" x="39.1006" y="54.8247" width="66.1609" height="65.7996" filterUnits="userSpaceOnUse" color-interpolation-filters="sRGB">
<feFlood flood-opacity="0" result="BackgroundImageFix"/>
<feBlend mode="normal" in="SourceGraphic" in2="BackgroundImageFix" result="shape"/>
<feGaussianBlur stdDeviation="0.5" result="effect1_foregroundBlur_21_16"/>
</filter>
<filter id="filter6_f_21_16" x="-1" y="70.7747" width="34.0804" height="33.8999" filterUnits="userSpaceOnUse" color-interpolation-filters="sRGB">
<feFlood flood-opacity="0" result="BackgroundImageFix"/>
<feBlend mode="normal" in="SourceGraphic" in2="BackgroundImageFix" result="shape"/>
<feGaussianBlur stdDeviation="0.5" result="effect1_foregroundBlur_21_16"/>
</filter>
<filter id="filter7_f_21_16" x="111.282" y="70.7747" width="50.1207" height="33.8999" filterUnits="userSpaceOnUse" color-interpolation-filters="sRGB">
<feFlood flood-opacity="0" result="BackgroundImageFix"/>
<feBlend mode="normal" in="SourceGraphic" in2="BackgroundImageFix" result="shape"/>
<feGaussianBlur stdDeviation="0.5" result="effect1_foregroundBlur_21_16"/>
</filter>
<filter id="filter8_f_21_16" x="-1" y="142.549" width="162.402" height="33.8999" filterUnits="userSpaceOnUse" color-interpolation-filters="sRGB">
<feFlood flood-opacity="0" result="BackgroundImageFix"/>
<feBlend mode="normal" in="SourceGraphic" in2="BackgroundImageFix" result="shape"/>
<feGaussianBlur stdDeviation="0.5" result="effect1_foregroundBlur_21_16"/>
</filter>
<filter id="filter9_d_21_16" x="756" y="135" width="48.1006" height="47.8748" filterUnits="userSpaceOnUse" color-interpolation-filters="sRGB">
<feFlood flood-opacity="0" result="BackgroundImageFix"/>
<feColorMatrix in="SourceAlpha" type="matrix" values="0 0 0 0 0 0 0 0 0 0 0 0 0 0 0 0 0 0 127 0" result="hardAlpha"/>
<feOffset dy="4"/>
<feGaussianBlur stdDeviation="2"/>
<feComposite in2="hardAlpha" operator="out"/>
<feColorMatrix type="matrix" values="0 0 0 0 0 0 0 0 0 0 0 0 0 0 0 0 0 0 0.25 0"/>
<feBlend mode="normal" in2="BackgroundImageFix" result="effect1_dropShadow_21_16"/>
<feBlend mode="normal" in="SourceGraphic" in2="effect1_dropShadow_21_16" result="shape"/>
</filter>
<filter id="filter10_f_21_16" x="758.101" y="133.455" width="44.1006" height="43.8748" filterUnits="userSpaceOnUse" color-interpolation-filters="sRGB">
<feFlood flood-opacity="0" result="BackgroundImageFix"/>
<feBlend mode="normal" in="SourceGraphic" in2="BackgroundImageFix" result="shape"/>
<feGaussianBlur stdDeviation="1" result="effect1_foregroundBlur_21_16"/>
</filter>
<filter id="filter11_f_21_16" x="174.443" y="68.9783" width="339.033" height="107.993" filterUnits="userSpaceOnUse" color-interpolation-filters="sRGB">
<feFlood flood-opacity="0" result="BackgroundImageFix"/>
<feBlend mode="normal" in="SourceGraphic" in2="BackgroundImageFix" result="shape"/>
<feGaussianBlur stdDeviation="1" result="effect1_foregroundBlur_21_16"/>
</filter>
<clipPath id="clip0_21_16">
<rect width="800" height="178" fill="white"/>
</clipPath>
</defs>
</svg>
